<svg xmlns="http://www.w3.org/2000/svg" width="512" height="512" viewBox="0 0 512 512" version="1.1">
	<path d="M 121.450 162.399 C 117.424 164.163, 113.222 169.271, 112.499 173.279 C 112.180 175.051, 112.050 213.930, 112.210 259.677 C 112.497 341.898, 112.524 342.886, 114.562 345.615 C 115.696 347.134, 117.866 349.304, 119.385 350.438 C 122.132 352.489, 122.689 352.500, 224 352.500 C 325.311 352.500, 325.868 352.489, 328.615 350.438 C 330.134 349.304, 332.304 347.135, 333.438 345.617 C 335.399 342.992, 335.514 341.360, 335.792 312.227 L 336.085 281.596 368.042 313.542 L 400 345.488 400 257 L 400 168.512 368.042 200.458 L 336.085 232.404 335.792 201.773 C 335.514 172.640, 335.399 171.008, 333.438 168.383 C 332.304 166.865, 330.134 164.696, 328.615 163.562 C 325.874 161.515, 325.130 161.498, 225.177 161.282 C 143.006 161.103, 123.939 161.309, 121.450 162.399" stroke="none" fill="black" fill-rule="evenodd"/>
</svg>