# Blender v2.78 (sub 0) OBJ File: '6.blend'
# www.blender.org
mtllib Glasses_01.mtl
o Glasses_01_Plane.001
v -15.749807 8.592093 1.310956
v -15.742660 6.653132 1.310956
v -0.908164 7.638325 1.625285
v -11.105313 8.967518 1.881202
v -1.816327 7.429180 1.374829
v -0.908164 8.801238 1.625285
v -1.816327 8.592093 1.374829
v -6.976035 0.221231 1.676659
v -2.079570 4.076644 1.310956
v -15.486541 4.076644 1.310956
v -6.460820 8.967518 1.881202
v -10.590097 0.221231 1.676659
v -16.521790 8.400100 1.310956
v -16.521790 6.845125 1.310956
v -14.651259 7.837141 1.357175
v -14.600885 6.378681 1.357175
v -10.736223 8.187355 1.837502
v -2.932124 7.032358 1.410975
v -2.914875 7.837141 1.410975
v -7.260976 1.093968 1.632958
v -3.225062 4.208465 1.357174
v -14.341048 4.208465 1.357174
v -6.829910 8.187355 1.837502
v -10.305157 1.093968 1.632958
v -15.732119 8.594985 0.312806
v -15.732119 6.656024 0.312806
v -0.904807 7.641217 0.651969
v 0.003356 7.714271 0.707932
v 0.003356 8.877184 0.707932
v -11.101956 8.970535 0.883052
v -7.255426 1.096986 0.634808
v -6.969983 0.224250 0.678509
v -0.904807 8.804130 0.651969
v -1.812971 8.594985 0.376678
v -1.812971 7.432072 0.376678
v -2.067468 4.079536 0.312806
v -15.491452 4.079536 0.312806
v -6.457464 8.970535 0.883052
v -10.590425 0.224250 0.678509
v -10.304981 1.096986 0.634808
v -14.601318 6.381573 0.359024
v -10.733080 8.190372 0.839351
v -14.647902 7.840033 0.359024
v -6.826349 8.190372 0.839351
v -2.926645 7.035250 0.412825
v -2.911518 7.840033 0.412825
v -3.212639 4.211358 0.359024
v -14.346465 4.211358 0.359024
v -16.521790 8.402991 0.312806
v -16.521790 6.848018 0.312806
v -15.732119 8.594985 -13.584429
v -15.732119 6.656025 -13.584429
v -16.521790 8.402992 -13.584429
v -16.521790 6.848018 -13.584429
v -15.732119 8.594986 -16.716841
v -15.732119 7.170451 -16.716841
v -16.521790 8.402992 -16.716841
v -16.521790 7.362444 -16.716841
v -15.732119 5.950890 -23.183113
v -15.732119 5.001687 -22.120892
v -16.521790 5.822960 -23.039949
v -16.521790 5.129617 -22.264051
v -15.732119 4.605276 -24.563124
v -15.732119 3.479622 -23.303440
v -16.521790 4.453566 -24.393347
v -16.521790 3.631334 -23.473215
v -15.732119 4.047689 -24.910896
v -15.732119 3.071576 -23.818558
v -16.521790 3.916134 -24.763672
v -16.521790 3.203134 -23.965778
v -2.577006 1.153499 1.310956
v -14.989126 1.153491 1.310956
v -3.604984 1.837383 1.357174
v -13.961147 1.837376 1.357174
v -2.560410 1.156391 0.312806
v -14.998392 1.156383 0.312806
v -3.589467 1.840275 0.359024
v -13.969649 1.840267 0.359024
v -15.732119 7.650763 -20.863201
v -15.732119 8.433353 -18.759279
v -15.732119 7.073528 -18.271139
v -15.732119 6.300541 -20.378510
v -16.521790 8.250389 -18.694202
v -16.521790 7.469166 -20.797699
v -16.521790 6.482698 -20.443983
v -16.521790 7.257208 -18.336927
v 15.749807 8.592093 1.310956
v 15.742660 6.653132 1.310956
v 0.908164 7.638325 1.625285
v 0.000000 7.711379 1.681247
v 0.000000 8.874291 1.681247
v 11.105313 8.967518 1.881202
v 1.816327 7.429180 1.374829
v 0.908164 8.801238 1.625285
v 1.816327 8.592093 1.374829
v 6.976035 0.221231 1.676659
v 2.079570 4.076644 1.310956
v 15.486541 4.076644 1.310956
v 6.460820 8.967518 1.881202
v 10.590097 0.221231 1.676659
v 16.521790 8.400100 1.310956
v 16.521790 6.845125 1.310956
v 14.651259 7.837141 1.357175
v 14.600885 6.378681 1.357175
v 10.736223 8.187355 1.837502
v 2.932124 7.032358 1.410975
v 2.914875 7.837141 1.410975
v 7.260976 1.093968 1.632958
v 3.225062 4.208465 1.357174
v 14.341048 4.208465 1.357174
v 6.829910 8.187355 1.837502
v 10.305157 1.093968 1.632958
v 15.732119 8.594985 0.312806
v 15.732119 6.656024 0.312806
v 0.904807 7.641217 0.651969
v -0.003356 7.714271 0.707932
v -0.003356 8.877184 0.707932
v 11.101956 8.970535 0.883052
v 7.255426 1.096986 0.634808
v 6.969983 0.224250 0.678509
v 0.904807 8.804130 0.651969
v 1.812971 8.594985 0.376678
v 1.812971 7.432072 0.376678
v 2.067468 4.079536 0.312806
v 15.491452 4.079536 0.312806
v 6.457464 8.970535 0.883052
v 10.590425 0.224250 0.678509
v 10.304981 1.096986 0.634808
v 14.601318 6.381573 0.359024
v 10.733080 8.190372 0.839351
v 14.647902 7.840033 0.359024
v 6.826349 8.190372 0.839351
v 2.926645 7.035250 0.412825
v 2.911518 7.840033 0.412825
v 3.212639 4.211358 0.359024
v 14.346465 4.211358 0.359024
v 16.521790 8.402991 0.312806
v 16.521790 6.848018 0.312806
v 15.732119 8.594985 -13.584429
v 15.732119 6.656025 -13.584429
v 16.521790 8.402992 -13.584429
v 16.521790 6.848018 -13.584429
v 15.732119 8.594986 -16.716841
v 15.732119 7.170451 -16.716841
v 16.521790 8.402992 -16.716841
v 16.521790 7.362444 -16.716841
v 15.732119 5.950890 -23.183113
v 15.732119 5.001687 -22.120892
v 16.521790 5.822960 -23.039949
v 16.521790 5.129617 -22.264051
v 15.732119 4.605276 -24.563124
v 15.732119 3.479622 -23.303440
v 16.521790 4.453566 -24.393347
v 16.521790 3.631334 -23.473215
v 15.732119 4.047689 -24.910896
v 15.732119 3.071576 -23.818558
v 16.521790 3.916134 -24.763672
v 16.521790 3.203134 -23.965778
v 2.577006 1.153499 1.310956
v 14.989126 1.153491 1.310956
v 3.604984 1.837383 1.357174
v 13.961147 1.837376 1.357174
v 2.560410 1.156391 0.312806
v 14.998392 1.156383 0.312806
v 3.589467 1.840275 0.359024
v 13.969649 1.840267 0.359024
v 15.732119 7.650763 -20.863201
v 15.732119 8.433353 -18.759279
v 15.732119 7.073528 -18.271139
v 15.732119 6.300541 -20.378510
v 16.521790 8.250389 -18.694202
v 16.521790 7.469166 -20.797699
v 16.521790 6.482698 -20.443983
v 16.521790 7.257208 -18.336927
vn -0.0615 0.0000 0.9981
vn 0.9859 -0.1670 0.0137
vn -0.0407 -0.0044 0.9992
vn -0.2659 0.0000 0.9640
vn -0.0400 -0.0066 0.9992
vn -0.0415 -0.0007 0.9991
vn -0.1123 -0.1057 0.9880
vn 0.0994 -0.0999 0.9900
vn 0.0328 -0.0003 0.9995
vn -0.1989 0.9800 0.0008
vn 0.1989 0.9800 0.0021
vn 0.0000 -0.0000 1.0000
vn -0.9874 0.1576 -0.0134
vn -0.9947 0.1021 -0.0086
vn 0.0000 -1.0000 -0.0030
vn 0.0678 0.0556 0.9962
vn -0.0676 -0.0555 -0.9962
vn 0.0894 -0.9960 -0.0027
vn 0.2070 -0.9783 -0.0005
vn -0.9998 0.0201 -0.0044
vn 0.9994 0.0332 0.0016
vn 0.0000 -0.0559 0.9984
vn 0.0000 0.0500 0.9987
vn 0.0390 -0.0225 0.9990
vn 0.0615 0.0000 -0.9981
vn -0.0400 0.0066 -0.9992
vn 0.0409 0.0043 -0.9992
vn 0.2901 0.0000 -0.9570
vn 0.0420 0.0006 -0.9991
vn 0.1126 0.1049 -0.9881
vn -0.0994 0.0999 -0.9900
vn -0.0328 0.0003 -0.9995
vn 0.0400 0.0066 -0.9992
vn -0.2070 -0.9783 -0.0019
vn 1.0000 0.0000 0.0000
vn 0.0000 0.0559 -0.9984
vn 0.0000 -0.0500 -0.9987
vn -0.0391 0.0225 -0.9990
vn 0.0809 0.9967 0.0032
vn 0.0000 1.0000 0.0030
vn 0.0400 -0.0066 0.9992
vn -1.0000 -0.0000 0.0000
vn 0.9970 -0.0771 0.0075
vn -0.9859 -0.1670 0.0065
vn 0.0803 -0.9968 -0.0027
vn -0.2377 -0.9713 -0.0041
vn 0.0676 -0.0555 -0.9962
vn -0.9954 -0.0960 -0.0031
vn 1.0000 -0.0000 0.0034
vn -0.0895 -0.9960 -0.0033
vn -0.2388 0.9711 0.0007
vn 0.2250 -0.9744 -0.0021
vn -0.0810 0.9967 0.0021
vn -0.0803 0.9968 0.0027
vn -0.2250 0.9744 0.0021
vn 0.9875 0.1576 -0.0064
vn 0.9930 0.1178 -0.0026
vn -0.2333 -0.9596 -0.1576
vn -0.2362 -0.9717 -0.0000
vn -0.2362 0.9717 0.0000
vn -0.2334 -0.9704 0.0618
vn -0.2299 0.7848 -0.5756
vn -0.2564 -0.6000 0.7578
vn -0.2333 0.9695 -0.0758
vn -0.2300 -0.7806 0.5811
vn -0.2572 0.5299 -0.8081
vn -0.2564 0.6858 -0.6812
vn -0.0000 -0.7457 -0.6663
vn -0.2572 -0.7436 0.6171
vn -0.2390 -0.9115 0.3347
vn -0.2381 0.9104 -0.3384
vn -0.0678 0.0556 0.9962
vn 0.0615 0.0000 0.9981
vn -0.9859 -0.1670 0.0137
vn 0.0407 -0.0044 0.9992
vn 0.2659 0.0000 0.9640
vn 0.0415 -0.0007 0.9991
vn 0.1123 -0.1057 0.9880
vn -0.0994 -0.0999 0.9900
vn -0.0328 -0.0003 0.9995
vn 0.1989 0.9800 0.0008
vn -0.1989 0.9800 0.0021
vn 0.9874 0.1576 -0.0134
vn 0.9947 0.1021 -0.0086
vn -0.0894 -0.9960 -0.0027
vn -0.2070 -0.9783 -0.0005
vn 0.9998 0.0201 -0.0044
vn -0.9994 0.0332 0.0016
vn -0.0390 -0.0225 0.9990
vn -0.0615 0.0000 -0.9981
vn -0.0409 0.0043 -0.9992
vn -0.2901 0.0000 -0.9570
vn -0.0420 0.0006 -0.9991
vn -0.1126 0.1049 -0.9881
vn 0.0994 0.0999 -0.9900
vn 0.0328 0.0003 -0.9995
vn 0.2070 -0.9783 -0.0019
vn 0.0391 0.0225 -0.9990
vn -0.0809 0.9967 0.0032
vn -0.9970 -0.0771 0.0075
vn 0.9859 -0.1670 0.0065
vn -0.0803 -0.9968 -0.0027
vn 0.2377 -0.9713 -0.0041
vn 0.9954 -0.0960 -0.0031
vn -1.0000 -0.0000 0.0034
vn 0.0895 -0.9960 -0.0033
vn 0.2388 0.9711 0.0007
vn -0.2250 -0.9744 -0.0021
vn 0.0810 0.9967 0.0021
vn 0.0803 0.9968 0.0027
vn 0.2250 0.9744 0.0021
vn -0.9875 0.1576 -0.0064
vn -0.9930 0.1178 -0.0026
vn 0.2333 -0.9596 -0.1576
vn 0.2362 -0.9717 -0.0000
vn 0.2362 0.9717 0.0000
vn 0.2334 -0.9704 0.0618
vn 0.2299 0.7848 -0.5756
vn 0.2564 -0.6000 0.7578
vn 0.2333 0.9695 -0.0758
vn 0.2300 -0.7806 0.5811
vn 0.2572 0.5299 -0.8081
vn 0.2564 0.6858 -0.6812
vn 0.2572 -0.7436 0.6171
vn 0.2390 -0.9115 0.3347
vn 0.2381 0.9104 -0.3384
usemtl 1A1A1A
s off
f 3//1 90//1 91//1 6//1
f 71//2 75//2 36//2 9//2
f 2//3 10//3 22//3 16//3
f 5//4 3//4 6//4 7//4
f 10//5 72//5 74//5 22//5
f 1//6 2//6 16//6 15//6
f 4//7 1//7 15//7 17//7
f 7//8 11//8 23//8 19//8
f 5//9 7//9 19//9 18//9
f 77//10 31//10 20//10 73//10
f 40//11 78//11 74//11 24//11
f 2//12 1//12 13//12 14//12
f 77//13 73//13 21//13 47//13
f 18//14 45//14 47//14 21//14
f 17//15 42//15 44//15 23//15
f 71//16 73//16 20//16 8//16
f 77//17 75//17 32//17 31//17
f 15//18 43//18 42//18 17//18
f 8//19 32//19 75//19 71//19
f 19//20 46//20 45//20 18//20
f 16//21 41//21 43//21 15//21
f 11//22 4//22 17//22 23//22
f 12//23 8//23 20//23 24//23
f 9//24 5//24 18//24 21//24
f 27//25 33//25 29//25 28//25
f 75//26 77//26 47//26 36//26
f 26//27 41//27 48//27 37//27
f 35//28 34//28 33//28 27//28
f 25//29 43//29 41//29 26//29
f 30//30 42//30 43//30 25//30
f 34//31 46//31 44//31 38//31
f 35//32 45//32 46//32 34//32
f 37//33 48//33 78//33 76//33
f 72//34 76//34 39//34 12//34
f 26//35 52//35 51//35 25//35
f 38//36 44//36 42//36 30//36
f 39//37 40//37 31//37 32//37
f 36//38 47//38 45//38 35//38
f 7//39 34//39 38//39 11//39
f 11//40 38//40 30//40 4//40
f 71//41 9//41 21//41 73//41
f 13//42 49//42 50//42 14//42
f 9//43 36//43 35//43 5//43
f 10//44 37//44 76//44 72//44
f 3//45 27//45 28//45 90//45
f 14//46 50//46 26//46 2//46
f 76//47 78//47 40//47 39//47
f 2//48 26//48 37//48 10//48
f 90//49 28//49 29//49 91//49
f 23//50 44//50 46//50 19//50
f 1//51 25//51 49//51 13//51
f 5//52 35//52 27//52 3//52
f 4//53 30//53 25//53 1//53
f 12//15 39//15 32//15 8//15
f 91//54 29//54 33//54 6//54
f 6//55 33//55 34//55 7//55
f 78//56 48//56 22//56 74//56
f 22//57 48//57 41//57 16//57
f 54//58 58//58 56//58 52//58
f 50//59 54//59 52//59 26//59
f 25//60 51//60 53//60 49//60
f 49//42 53//42 54//42 50//42
f 56//35 81//35 80//35 55//35
f 52//35 56//35 55//35 51//35
f 51//60 55//60 57//60 53//60
f 53//42 57//42 58//42 54//42
f 58//61 86//61 81//61 56//61
f 84//42 61//42 62//42 85//42
f 57//42 83//42 86//42 58//42
f 79//62 59//62 61//62 84//62
f 62//63 66//63 64//63 60//63
f 55//64 80//64 83//64 57//64
f 85//65 62//65 60//65 82//65
f 63//66 67//66 69//66 65//66
f 60//35 64//35 63//35 59//35
f 59//67 63//67 65//67 61//67
f 61//42 65//42 66//42 62//42
f 68//68 70//68 69//68 67//68
f 65//42 69//42 70//42 66//42
f 66//69 70//69 68//69 64//69
f 64//35 68//35 67//35 63//35
f 20//40 31//40 40//40 24//40
f 80//35 81//35 82//35 79//35
f 84//42 85//42 86//42 83//42
f 85//70 82//70 81//70 86//70
f 79//71 84//71 83//71 80//71
f 82//35 60//35 59//35 79//35
f 74//72 72//72 12//72 24//72
f 89//73 94//73 91//73 90//73
f 159//74 97//74 124//74 163//74
f 88//75 104//75 110//75 98//75
f 93//76 95//76 94//76 89//76
f 98//41 110//41 162//41 160//41
f 87//77 103//77 104//77 88//77
f 92//78 105//78 103//78 87//78
f 95//79 107//79 111//79 99//79
f 93//80 106//80 107//80 95//80
f 165//81 161//81 108//81 119//81
f 128//82 112//82 162//82 166//82
f 88//12 102//12 101//12 87//12
f 165//83 135//83 109//83 161//83
f 106//84 109//84 135//84 133//84
f 105//15 111//15 132//15 130//15
f 159//72 96//72 108//72 161//72
f 165//47 119//47 120//47 163//47
f 103//85 105//85 130//85 131//85
f 96//86 159//86 163//86 120//86
f 107//87 106//87 133//87 134//87
f 104//88 103//88 131//88 129//88
f 99//22 111//22 105//22 92//22
f 100//23 112//23 108//23 96//23
f 97//89 109//89 106//89 93//89
f 115//90 116//90 117//90 121//90
f 163//33 124//33 135//33 165//33
f 114//91 125//91 136//91 129//91
f 123//92 115//92 121//92 122//92
f 113//93 114//93 129//93 131//93
f 118//94 113//94 131//94 130//94
f 122//95 126//95 132//95 134//95
f 123//96 122//96 134//96 133//96
f 125//26 164//26 166//26 136//26
f 160//97 100//97 127//97 164//97
f 114//42 113//42 139//42 140//42
f 126//36 118//36 130//36 132//36
f 127//37 120//37 119//37 128//37
f 124//98 123//98 133//98 135//98
f 95//99 99//99 126//99 122//99
f 99//40 92//40 118//40 126//40
f 159//5 161//5 109//5 97//5
f 101//35 102//35 138//35 137//35
f 97//100 93//100 123//100 124//100
f 98//101 160//101 164//101 125//101
f 89//102 90//102 116//102 115//102
f 102//103 88//103 114//103 138//103
f 164//17 127//17 128//17 166//17
f 88//104 98//104 125//104 114//104
f 90//105 91//105 117//105 116//105
f 111//106 107//106 134//106 132//106
f 87//107 101//107 137//107 113//107
f 93//108 89//108 115//108 123//108
f 92//109 87//109 113//109 118//109
f 100//15 96//15 120//15 127//15
f 91//110 94//110 121//110 117//110
f 94//111 95//111 122//111 121//111
f 166//112 162//112 110//112 136//112
f 110//113 104//113 129//113 136//113
f 142//114 140//114 144//114 146//114
f 138//115 114//115 140//115 142//115
f 113//116 137//116 141//116 139//116
f 137//35 138//35 142//35 141//35
f 144//42 143//42 168//42 169//42
f 140//42 139//42 143//42 144//42
f 139//116 141//116 145//116 143//116
f 141//35 142//35 146//35 145//35
f 146//117 144//117 169//117 174//117
f 172//35 173//35 150//35 149//35
f 145//35 146//35 174//35 171//35
f 167//118 172//118 149//118 147//118
f 150//119 148//119 152//119 154//119
f 143//120 145//120 171//120 168//120
f 173//121 170//121 148//121 150//121
f 151//122 153//122 157//122 155//122
f 148//42 147//42 151//42 152//42
f 147//123 149//123 153//123 151//123
f 149//35 150//35 154//35 153//35
f 156//68 155//68 157//68 158//68
f 153//35 154//35 158//35 157//35
f 154//124 152//124 156//124 158//124
f 152//42 151//42 155//42 156//42
f 108//40 112//40 128//40 119//40
f 168//42 167//42 170//42 169//42
f 172//35 171//35 174//35 173//35
f 173//125 174//125 169//125 170//125
f 167//126 168//126 171//126 172//126
f 170//42 167//42 147//42 148//42
f 162//16 112//16 100//16 160//16
